:FULLY-SPECIFIED
:FORCE-ALL-JOINTS-BE-3DOF
:DEGREES
713
root 5.54204 21.4575 7.04286 -120.549 -88.1825 136.858
lfemur -36.2545 -13.4593 11.9619
ltibia 70.9923 -0 0
lfoot 7.82468 -9.10431 0.0181911
ltoes 31.2479 -0 0
rfemur -30.8197 -0.316465 -1.71357
rtibia 89.021 -0 0
rfoot 22.0915 -18.8168 -0.0440195
rtoes 40.4776 -0 0
lowerback 5.96667 -0.686256 -1.88544
upperback -1.35234 -1.15444 -1.7769
thorax -4.75497 -0.554901 -0.653114
lowerneck -6.67756 -6.3534 -2.30846
upperneck -0.0451929 -8.46253 5.04231
head 1.45879 -4.16144 1.685
lclavicle -2.46493e-14 2.54444e-14 0
lhumerus 0.0468143 -19.0594 14.449
lradius 46.6411 -0 0
lwrist 23.0753 0 0
lhand -22.6079 -3.79709 -0.015453
lfingers 7.12502 -0 0
lthumb 3.82212 26.159 -0.0131977
rclavicle -2.46493e-14 2.54444e-14 0
rhumerus -11.6026 -2.67836 -25.4723
rradius 100.872 -0 0
rwrist -9.54708 0 0
rhand -27.2878 -34.0618 0.0442681
rfingers 7.12502 -0 0
rthumb -0.697874 -64.0292 0.0420163
714
root 5.52062 21.4999 7.39453 -134.875 -87.5797 151.247
lfemur -34.8957 -14.1007 10.2482
ltibia 67.9199 -0 0
lfoot 7.63037 -9.2907 0.00945617
ltoes 30.5707 -0 0
rfemur -32.3717 -0.9362 -1.8891
rtibia 93.2246 -0 0
rfoot 21.802 -19.8019 -0.00866728
rtoes 41.8293 -0 0
lowerback 5.99546 -0.605635 -1.82976
upperback -1.33658 -1.04018 -1.67342
thorax -4.75164 -0.496432 -0.593585
lowerneck -6.77726 -6.40827 -2.3787
upperneck -0.250835 -8.51746 4.97286
head 1.41114 -4.19355 1.67189
lclavicle -2.46493e-14 2.54444e-14 0
lhumerus -0.961427 -19.5926 15.4783
lradius 45.5285 -0 0
lwrist 22.7862 0 0
lhand -22.4263 -3.57345 -0.00767213
lfingers 7.12502 -0 0
lthumb 3.99727 26.3743 -0.0065153
rclavicle -2.46493e-14 2.54444e-14 0
rhumerus -11.1264 -2.24324 -26.507
rradius 100.098 -0 0
rwrist -9.69456 0 0
rhand -26.9055 -33.9575 0.0213825
rfingers 7.12502 -0 0
rthumb -0.328728 -63.9314 0.0202767
715
root 5.49097 21.5295 7.79601 -140.605 -87.2103 157.04
lfemur -33.5571 -14.4896 8.51967
ltibia 65.1241 0 0
lfoot 7.43438 -9.44215 0
ltoes 29.8338 0 0
rfemur -33.8349 -1.58686 -1.91882
rtibia 97.0122 0 0
rfoot 21.3635 -20.6634 0
rtoes 42.9309 0 0
lowerback 5.99658 -0.553404 -1.77502
upperback -1.3238 -0.963173 -1.56773
thorax -4.7355 -0.456483 -0.530585
lowerneck -6.88249 -6.45178 -2.43303
upperneck -0.433777 -8.5592 4.89979
head 1.37063 -4.21848 1.65523
lclavicle 1.2921e-14 3.18055e-14 0
lhumerus -1.77093 -20.2407 16.623
lradius 44.6521 0 0
lwrist 22.5382 0 0
lhand -22.2191 -3.35407 0
lfingers 7.12502 0 0
lthumb 4.19717 26.5843 0
rclavicle 1.2921e-14 3.18055e-14 0
rhumerus -10.8552 -1.84384 -27.5558
rradius 99.2563 0 0
rwrist -9.86977 0 0
rhand -26.5547 -33.9151 0
rfingers 7.12502 0 0
rthumb 0.0100137 -783.895 0
716
root 5.45835 21.5451 8.19561 -153.281 -84.8899 169.949
lfemur -32.7594 -15.1978 7.76625
ltibia 62.3534 -0 0
lfoot 7.44755 -9.7 -0.00469235
ltoes 29.5086 -0 0
rfemur -34.2824 -2.44502 -2.36883
rtibia 99.8342 -0 0
rfoot 21.9444 -20.4335 0.133509
rtoes 43.5048 -0 0
lowerback 5.90379 -0.259631 -1.66005
upperback -1.35154 -0.559343 -1.53728
thorax -4.69958 -0.257724 -0.576499
lowerneck -6.9273 -6.52288 -2.45866
upperneck -0.574028 -8.64609 4.84281
head 1.33303 -4.266 1.63821
lclavicle 1.2921e-14 3.18055e-14 0
lhumerus -3.89946 -20.3464 17.42
lradius 43.9363 -0 0
lwrist 22.3155 0 0
lhand -22.225 -3.30928 0.000278382
lfingers 7.12502 -0 0
lthumb 4.19145 26.6292 0.000269731
rclavicle 1.2921e-14 3.18055e-14 0
rhumerus -9.05042 -1.47393 -28.3006
rradius 98.9872 -0 0
rwrist -9.79219 0 0
rhand -26.4718 -33.6677 -0.0134624
rfingers 7.12502 -0 0
rthumb 0.0900935 -63.6498 -0.0128378
717
root 5.42812 21.5458 8.54197 -158.26 -82.2495 175.207
lfemur -31.9176 -15.8486 6.9786
ltibia 59.4187 -0 0
lfoot 7.4787 -9.97452 -0.00957201
ltoes 29.1214 -0 0
rfemur -34.6293 -3.46628 -2.80471
rtibia 102.632 -0 0
rfoot 22.568 -19.9751 0.273718
rtoes 43.9075 -0 0
lowerback 5.76733 0.0730207 -1.52511
upperback -1.38911 -0.101378 -1.5072
thorax -4.6464 -0.0326158 -0.635017
lowerneck -6.97815 -6.59688 -2.47227
upperneck -0.711796 -8.7381 4.77601
head 1.29626 -4.31622 1.61574
lclavicle 1.2921e-14 3.18055e-14 0
lhumerus -6.27114 -20.5005 18.3971
lradius 43.329 -0 0
lwrist 22.0974 0 0
lhand -22.2282 -3.27626 0.000515201
lfingers 7.12502 -0 0
lthumb 4.18839 26.6623 0.000499147
rclavicle 1.2921e-14 3.18055e-14 0
rhumerus -7.02844 -1.06381 -29.1303
rradius 98.6706 -0 0
rwrist -9.70554 0 0
rhand -26.4257 -33.4193 -0.0265172
rfingers 7.12502 -0 0
rthumb 0.134615 -63.4032 -0.0253023
718
root 5.39974 21.5316 8.84056 -160.814 -79.3853 178.084
lfemur -31.0408 -16.4392 6.16457
ltibia 56.3523 -0 0
lfoot 7.52642 -10.2626 -0.0144499
ltoes 28.6789 -0 0
rfemur -34.8778 -4.63141 -3.22515
rtibia 105.387 -0 0
rfoot 23.2276 -19.3064 0.414927
rtoes 44.1474 -0 0
lowerback 5.59139 0.439789 -1.37303
upperback -1.43553 0.403823 -1.47786
thorax -4.57761 0.215506 -0.704743
lowerneck -7.0343 -6.67303 -2.47453
upperneck -0.846205 -8.83427 4.70054
head 1.26056 -4.36859 1.58835
lclavicle 1.2921e-14 3.18055e-14 0
lhumerus -8.85635 -20.6815 19.5407
lradius 42.8274 -0 0
lwrist 21.8851 0 0
lhand -22.2288 -3.25448 0.000708413
lfingers 7.12502 -0 0
lthumb 4.18784 26.6841 0.000686275
rclavicle 1.2921e-14 3.18055e-14 0
rhumerus -4.82025 -0.608842 -30.0287
rradius 98.312 -0 0
rwrist -9.61104 0 0
rhand -26.4143 -33.1719 -0.0388847
rfingers 7.12502 -0 0
rthumb 0.145592 -63.1571 -0.0371252
719
root 5.37263 21.5026 9.09684 -162.313 -76.348 179.945
lfemur -30.1385 -16.9671 5.33253
ltibia 53.1864 -0 0
lfoot 7.58931 -10.5612 -0.0191432
ltoes 28.1883 -0 0
rfemur -35.0306 -5.92125 -3.62968
rtibia 108.08 -0 0
rfoot 23.9166 -18.4454 0.55159
rtoes 44.2328 -0 0
lowerback 5.38014 0.835913 -1.2066
upperback -1.48985 0.94936 -1.44964
thorax -4.49483 0.483311 -0.784283
lowerneck -7.09498 -6.7506 -2.46612
upperneck -0.976382 -8.93361 4.61754
head 1.22613 -4.42259 1.55657
lclavicle 1.2921e-14 3.18055e-14 0
lhumerus -11.6248 -20.8685 20.836
lradius 42.4288 -0 0
lwrist 21.68 0 0
lhand -22.2269 -3.24339 0.000857693
lfingers 7.12502 -0 0
lthumb 4.18964 26.6952 0.000830804
rclavicle 1.2921e-14 3.18055e-14 0
rhumerus -2.45674 -0.105635 -30.9794
rradius 97.9168 -0 0
rwrist -9.50992 0 0
rhand -26.4355 -32.9273 -0.0503033
rfingers 7.12502 -0 0
rthumb 0.125041 -62.9134 -0.0480543
720
root 5.34626 21.459 9.31626 -163.257 -73.1779 -178.716
lfemur -29.2203 -17.4302 4.49125
ltibia 49.9533 -0 0
lfoot 7.66596 -10.8671 -0.0234811
ltoes 27.6562 -0 0
rfemur -35.0904 -7.31678 -4.01849
rtibia 110.693 -0 0
rfoot 24.6281 -17.4105 0.678485
rtoes 44.1719 -0 0
lowerback 5.1377 1.25662 -1.02863
upperback -1.55114 1.52833 -1.42288
thorax -4.3997 0.767466 -0.872252
lowerneck -7.15947 -6.82882 -2.4477
upperneck -1.10146 -9.03514 4.52815
head 1.19321 -4.47766 1.52092
lclavicle 1.2921e-14 3.18055e-14 0
lhumerus -14.545 -21.0422 22.2663
lradius 42.1305 -0 0
lwrist 21.4833 0 0
lhand -22.2228 -3.24248 0.000964156
lfingers 7.12502 -0 0
lthumb 4.19364 26.696 0.000933823
rclavicle 1.2921e-14 3.18055e-14 0
rhumerus 0.031451 0.447542 -31.9662
rradius 97.4903 -0 0
rwrist -9.40342 0 0
rhand -26.4874 -32.6873 -0.0605341
rfingers 7.12502 -0 0
rthumb 0.0749778 -62.6741 -0.0578592
721
root 5.32006 21.4009 9.50428 -163.873 -69.9127 -177.675
lfemur -28.2966 -17.8271 3.64989
ltibia 46.6852 -0 0
lfoot 7.75495 -11.1773 -0.0273099
ltoes 27.0898 -0 0
rfemur -35.0604 -8.79911 -4.39219
rtibia 113.205 -0 0
rfoot 25.3552 -16.22 0.790875
rtoes 43.9732 -0 0
lowerback 4.86815 1.69712 -0.841817
upperback -1.61848 2.13382 -1.39791
thorax -4.29382 1.06464 -0.967281
lowerneck -7.22699 -6.90696 -2.41997
upperneck -1.22057 -9.13785 4.4335
head 1.16201 -4.53326 1.48192
lclavicle 1.2921e-14 3.18055e-14 0
lhumerus -17.5843 -21.1852 23.8133
lradius 41.9299 -0 0
lwrist 21.2963 0 0
lhand -22.2165 -3.2512 0.00103011
lfingers 7.12502 -0 0
lthumb 4.19969 26.6871 0.00099758
rclavicle 1.2921e-14 3.18055e-14 0
rhumerus 2.61396 1.05049 -32.9734
rradius 97.0382 -0 0
rwrist -9.29277 0 0
rhand -26.5677 -32.4539 -0.0693656
rfingers 7.12502 -0 0
rthumb -0.00257659 -62.4409 -0.0663351
722
root 5.29347 21.3284 9.66635 -164.277 -66.5887 -176.82
lfemur -27.3778 -18.1569 2.8179
ltibia 43.4143 -0 0
lfoot 7.85488 -11.4887 -0.030497
ltoes 26.4958 -0 0
rfemur -34.9441 -10.3494 -4.75165
rtibia 115.6 -0 0
rfoot 26.0903 -14.8926 0.884646
rtoes 43.6449 -0 0
lowerback 4.57548 2.15257 -0.648821
upperback -1.69097 2.75893 -1.37505
thorax -4.17878 1.37148 -1.06802
lowerneck -7.29681 -6.98428 -2.38361
upperneck -1.33286 -9.24074 4.33471
head 1.13276 -4.58885 1.44009
lclavicle 1.2921e-14 3.18055e-14 0
lhumerus -20.7085 -21.2829 25.4568
lradius 41.8242 -0 0
lwrist 21.1204 0 0
lhand -22.2083 -3.26903 0.00105883
lfingers 7.12502 -0 0
lthumb 4.20763 26.6692 0.00102525
rclavicle 1.2921e-14 3.18055e-14 0
rhumerus 5.26084 1.70091 -33.9861
rradius 96.5657 -0 0
rwrist -9.17919 0 0
rhand -26.6743 -32.2289 -0.0766178
rfingers 7.12502 -0 0
rthumb -0.105602 -62.2158 -0.0733069
